<?xml version="1.0" encoding="iso-8859-1"?>
<!-- Generator: Adobe Illustrator 22.0.1, SVG Export Plug-In . SVG Version: 6.00 Build 0)  -->
<svg version="1.1" id="Icons" xmlns="http://www.w3.org/2000/svg" xmlns:xlink="http://www.w3.org/1999/xlink" x="0px" y="0px"
	 viewBox="0 0 512 512" style="enable-background:new 0 0 512 512;" xml:space="preserve">
<g>
	<path id="XMLID_1655_" style="fill:#FDC679;" d="M512,255.904c0,70.692-28.654,134.692-74.981,181.019S326.692,511.904,256,511.904
		S121.308,483.25,74.981,436.924S0,326.597,0,255.904S28.654,121.212,74.981,74.885S185.308-0.096,256-0.096
		s134.692,28.654,181.019,74.981S512,185.212,512,255.904z"/>
	<g id="XMLID_1672_">
		<path id="XMLID_1707_" style="fill:#E0AE6F;" d="M56.742,253.343c0,53.572,21.714,102.072,56.821,137.179
			s83.607,56.821,137.179,56.821s102.072-21.714,137.179-56.821s56.821-83.607,56.821-137.179s-21.714-102.072-56.821-137.179
			s-83.607-56.821-137.179-56.821s-102.072,21.714-137.179,56.821S56.742,199.771,56.742,253.343z"/>
		<g id="XMLID_1699_">
			<path id="XMLID_1706_" style="fill:#B43948;" d="M147.389,29.069l43.448,43.448l43.448,43.448
				c12.574,12.574,20.08,28.296,22.518,44.627c2.438,16.332-0.191,33.274-7.886,48.29c-1.848,3.616-3.993,7.12-6.432,10.478
				c-2.439,3.357-5.173,6.567-8.2,9.594c-15.6,15.6-36.047,23.401-56.494,23.401s-40.894-7.8-56.494-23.401l-43.448-43.448
				l-43.448-43.448C18.8,126.457,11,106.01,11,85.563s7.8-40.894,23.401-56.494c3.026-3.026,6.235-5.758,9.591-8.197
				s6.861-4.583,10.481-6.435c5.698-2.922,11.676-5.115,17.794-6.578c6.118-1.463,12.374-2.195,18.629-2.195
				c10.221,0.004,20.445,1.955,30.063,5.855S139.589,21.269,147.389,29.069z"/>
			<path id="XMLID_1705_" style="fill:#2699DB;" d="M147.389,29.069l24.079,24.079l24.079,24.079l-56.494,56.494l-56.494,56.494
				l-24.079-24.079l-24.079-24.079C18.8,126.457,11,106.01,11,85.563s7.8-40.894,23.401-56.494c3.026-3.026,6.235-5.758,9.591-8.197
				s6.861-4.583,10.481-6.435c5.698-2.922,11.676-5.115,17.794-6.578c6.118-1.463,12.374-2.195,18.629-2.195
				c10.221,0.004,20.445,1.955,30.063,5.855S139.589,21.269,147.389,29.069z"/>
			<path id="XMLID_1704_" style="fill:#FB4755;" d="M147.389,29.069l43.448,43.448l43.448,43.448
				c12.574,12.574,20.08,28.296,22.518,44.627c2.438,16.332-0.191,33.274-7.886,48.29c-15.015,7.695-31.958,10.324-48.29,7.886
				s-32.053-9.944-44.627-22.518l-43.448-43.448l-43.448-43.448C56.53,94.78,49.025,79.058,46.586,62.726
				c-2.438-16.332,0.191-33.274,7.886-48.289c5.698-2.922,11.676-5.115,17.794-6.578c6.118-1.463,12.374-2.195,18.629-2.195
				c10.221,0.004,20.445,1.955,30.063,5.855S139.589,21.269,147.389,29.069z"/>
			<path id="XMLID_1703_" style="fill:#29A4FC;" d="M147.389,29.069c-7.8-7.8-16.813-13.649-26.431-17.55
				s-19.842-5.851-30.063-5.855c-6.255,0-12.511,0.732-18.629,2.195c-6.118,1.463-12.096,3.656-17.794,6.578
				c-7.695,15.015-10.324,31.958-7.886,48.289c2.438,16.332,9.944,32.053,22.518,44.627l24.079,24.079l24.079,24.079l19.571-19.571
				l19.571-19.571l-16.646-16.646l-16.646-16.646c-3.956-3.956-5.934-9.141-5.934-14.325c0-5.185,1.978-10.369,5.934-14.325
				c3.956-3.956,9.141-5.934,14.325-5.934s10.369,1.978,14.325,5.934l16.646,16.646l16.646,16.646l5.246-5.246l5.246-5.246
				l-24.079-24.079L147.389,29.069z"/>
			<path id="XMLID_1702_" style="fill:#FA7A87;" d="M189.695,149.66c3.956,3.956,9.141,5.934,14.325,5.934s10.37-1.978,14.325-5.934
				s5.934-9.141,5.934-14.325s-1.978-10.37-5.934-14.325L201.7,104.364l-16.646-16.646l-14.325,14.325l-14.325,14.325l16.646,16.646
				L189.695,149.66z"/>
			<path id="XMLID_1701_" style="fill:#67C5FA;" d="M123.113,54.427c-3.956,3.956-5.934,9.141-5.934,14.325
				c0,5.185,1.978,10.369,5.934,14.325l16.646,16.646l16.646,16.646l14.325-14.325l14.325-14.325l-16.646-16.646l-16.646-16.646
				c-3.956-3.956-9.141-5.934-14.325-5.934S127.069,50.471,123.113,54.427z"/>
		</g>
		<path id="XMLID_1698_" style="fill:#B43948;" d="M477.082,220.04l-43.393,43.393l-43.393,43.393
			c-12.558,12.558-28.259,20.054-44.57,22.489s-33.232-0.19-48.228-7.876c-3.611-1.846-7.111-3.988-10.464-6.424
			c-3.353-2.436-6.559-5.167-9.582-8.189c-15.581-15.581-23.371-36.001-23.371-56.422s7.79-40.841,23.371-56.422l43.393-43.393
			l43.393-43.393c15.581-15.581,36.001-23.371,56.422-23.371s40.841,7.79,56.422,23.371c3.023,3.023,5.751,6.227,8.186,9.579
			c2.435,3.352,4.577,6.852,6.427,10.467c2.918,5.691,5.108,11.661,6.569,17.771c1.461,6.11,2.192,12.358,2.192,18.605
			c-0.004,10.208-1.953,20.419-5.848,30.025S484.872,212.25,477.082,220.04z"/>
		<path id="XMLID_1697_" style="fill:#FC7701;" d="M477.082,220.04l-24.048,24.048l-24.048,24.048l-56.422-56.422l-56.422-56.422
			l24.048-24.048l24.048-24.048c15.581-15.581,36.001-23.371,56.422-23.371s40.841,7.79,56.422,23.371
			c3.023,3.023,5.751,6.227,8.186,9.579c2.435,3.352,4.577,6.852,6.427,10.467c2.918,5.691,5.108,11.661,6.569,17.771
			c1.461,6.11,2.192,12.358,2.192,18.605c-0.004,10.208-1.953,20.419-5.848,30.025S484.872,212.25,477.082,220.04z"/>
		<path id="XMLID_1696_" style="fill:#FB4755;" d="M477.082,220.04l-43.393,43.393l-43.393,43.393
			c-12.558,12.558-28.259,20.054-44.57,22.489s-33.232-0.19-48.228-7.876c-7.685-14.996-10.311-31.917-7.876-48.228
			s9.931-32.012,22.489-44.57l43.393-43.393l43.393-43.393c12.558-12.558,28.259-20.054,44.57-22.489
			c16.311-2.435,33.232,0.19,48.228,7.876c2.918,5.691,5.108,11.661,6.569,17.771c1.461,6.11,2.192,12.358,2.192,18.605
			c-0.004,10.208-1.953,20.419-5.848,30.025S484.872,212.25,477.082,220.04z"/>
		<path id="XMLID_1694_" style="fill:#FC840A;" d="M477.082,220.04c7.79-7.79,13.632-16.792,17.527-26.397
			s5.844-19.816,5.848-30.025c0-6.247-0.731-12.495-2.192-18.605c-1.461-6.11-3.651-12.08-6.569-17.771
			c-14.996-7.686-31.917-10.311-48.228-7.876c-16.311,2.435-32.012,9.931-44.57,22.489l-24.048,24.048l-24.048,24.048l19.546,19.546
			l19.546,19.546l16.624-16.624l16.624-16.624c3.951-3.951,9.129-5.926,14.307-5.926c5.178,0,10.356,1.975,14.307,5.926
			c3.951,3.951,5.926,9.129,5.926,14.307c0,5.178-1.975,10.356-5.926,14.307l-16.624,16.624l-16.624,16.624l5.239,5.239l5.239,5.239
			l24.048-24.048L477.082,220.04z"/>
		<path id="XMLID_1693_" style="fill:#FA7A87;" d="M356.645,262.292c-3.951,3.951-5.926,9.129-5.926,14.307
			c0,5.178,1.975,10.356,5.926,14.307c3.951,3.951,9.129,5.926,14.307,5.926c5.178,0,10.356-1.975,14.307-5.926l16.624-16.624
			l16.624-16.624L404.2,243.35l-14.307-14.307l-16.624,16.624L356.645,262.292z"/>
		<path id="XMLID_1692_" style="fill:#FA9F4F;" d="M451.756,195.795c-3.951-3.951-9.129-5.926-14.307-5.926
			c-5.178,0-10.356,1.975-14.307,5.926l-16.624,16.624l-16.624,16.624L404.2,243.35l14.307,14.307l16.624-16.624l16.624-16.624
			c3.951-3.951,5.926-9.129,5.926-14.307C457.682,204.924,455.707,199.745,451.756,195.795z"/>
		<path id="XMLID_1691_" style="fill:#2699DB;" d="M231.791,290.059l42,42l42,42c12.155,12.155,19.411,27.353,21.768,43.14
			s-0.184,32.165-7.623,46.68c-1.787,3.495-3.86,6.883-6.218,10.129s-5.001,6.349-7.926,9.274
			c-15.081,15.081-34.846,22.621-54.612,22.621c-19.766,0-39.531-7.54-54.612-22.621l-42-42l-42-42
			c-15.081-15.081-22.621-34.846-22.621-54.612c0-19.766,7.54-39.531,22.621-54.612c2.926-2.926,6.027-5.566,9.271-7.924
			c3.245-2.357,6.632-4.43,10.131-6.221c5.508-2.824,11.287-4.944,17.201-6.358c5.914-1.414,11.962-2.122,18.008-2.122
			c9.881,0.004,19.764,1.89,29.061,5.66C215.538,276.865,224.251,282.519,231.791,290.059z"/>
		<path id="XMLID_1690_" style="fill:#FC7701;" d="M231.791,290.059l23.276,23.276l23.276,23.276l-54.612,54.612l-54.612,54.612
			l-23.276-23.276l-23.276-23.276c-15.081-15.081-22.621-34.846-22.621-54.612c0-19.766,7.54-39.531,22.621-54.612
			c2.926-2.926,6.027-5.566,9.271-7.924c3.245-2.357,6.632-4.43,10.131-6.221c5.508-2.824,11.287-4.944,17.201-6.358
			c5.914-1.414,11.962-2.122,18.008-2.122c9.881,0.004,19.764,1.89,29.061,5.66C215.538,276.865,224.251,282.519,231.791,290.059z"
			/>
		<path id="XMLID_1689_" style="fill:#29A4FC;" d="M231.791,290.059l42,42l42,42c12.155,12.155,19.411,27.353,21.768,43.14
			s-0.184,32.165-7.623,46.68c-14.515,7.439-30.893,9.98-46.68,7.623c-15.788-2.357-30.985-9.613-43.14-21.768l-42-42l-42-42
			c-12.155-12.155-19.411-27.353-21.768-43.14c-2.357-15.788,0.184-32.165,7.623-46.68c5.508-2.824,11.287-4.944,17.201-6.358
			c5.914-1.414,11.962-2.122,18.008-2.122c9.881,0.004,19.764,1.89,29.061,5.66C215.538,276.865,224.251,282.519,231.791,290.059z"
			/>
		<path id="XMLID_1688_" style="fill:#FC840A;" d="M231.791,290.059c-7.54-7.54-16.253-13.195-25.55-16.965
			c-9.298-3.77-19.18-5.656-29.061-5.66c-6.046,0-12.095,0.708-18.008,2.122c-5.914,1.414-11.693,3.534-17.201,6.358
			c-7.439,14.515-9.98,30.893-7.623,46.68c2.357,15.788,9.613,30.985,21.768,43.14l23.276,23.276l23.276,23.276l18.919-18.919
			l18.919-18.919l-16.091-16.091l-16.091-16.091c-3.824-3.824-5.736-8.836-5.736-13.848s1.912-10.024,5.736-13.848
			s8.836-5.736,13.848-5.736c5.012,0,10.024,1.912,13.848,5.736l16.091,16.091l16.091,16.091l5.071-5.071l5.071-5.071
			l-23.276-23.276L231.791,290.059z"/>
		<path id="XMLID_1687_" style="fill:#67C5FA;" d="M272.688,406.632c3.824,3.824,8.836,5.736,13.848,5.736
			c5.012,0,10.024-1.912,13.848-5.736s5.736-8.836,5.736-13.848c0-5.012-1.912-10.024-5.736-13.848l-16.091-16.091l-16.091-16.091
			l-13.848,13.848l-13.848,13.848l16.091,16.091L272.688,406.632z"/>
		<path id="XMLID_1673_" style="fill:#FA9F4F;" d="M208.324,314.572c-3.824,3.824-5.736,8.836-5.736,13.848
			s1.912,10.024,5.736,13.848l16.091,16.091l16.091,16.091l13.848-13.848l13.848-13.848l-16.091-16.091l-16.091-16.091
			c-3.824-3.824-8.836-5.736-13.848-5.736C217.16,308.836,212.148,310.748,208.324,314.572z"/>
	</g>
</g>
</svg>
